<svg width="512" height="512" viewBox="0 0 512 512" fill="none" xmlns="http://www.w3.org/2000/svg">
  <defs>
    <linearGradient id="roomeGrad" x1="0%" y1="0%" x2="100%" y2="100%">
      <stop offset="0%" style="stop-color:#6366f1;stop-opacity:1" />
      <stop offset="100%" style="stop-color:#8b5cf6;stop-opacity:1" />
    </linearGradient>
  </defs>
  <!-- 圆角方形背景 -->
  <rect x="16" y="16" width="480" height="480" rx="96" fill="url(#roomeGrad)"/>
  <!-- R 主体竖线 -->
  <rect x="120" y="96" width="56" height="320" rx="8" fill="white"/>
  <!-- R 头部弧线 -->
  <path d="M176 96 L280 96 C344 96 392 144 392 208 C392 272 344 320 280 320 L176 320 L176 264 L272 264 C304 264 328 240 328 208 C328 176 304 152 272 152 L176 152 L176 96Z" fill="white"/>
  <!-- R 的右腿变成门框 -->
  <rect x="260" y="300" width="120" height="116" rx="8" fill="white"/>
  <!-- 门（打开状态，有透视感） -->
  <path d="M268 308 L340 320 L340 400 L268 408 Z" fill="url(#roomeGrad)" opacity="0.8"/>
  <!-- 门把手 -->
  <circle cx="328" cy="360" r="8" fill="white"/>
</svg>
